<?xml version="1.0" encoding="utf-8"?>
<!-- Generator: Adobe Illustrator 27.0.0, SVG Export Plug-In . SVG Version: 6.00 Build 0)  -->
<svg version="1.1" id="Layer_1" xmlns="http://www.w3.org/2000/svg" xmlns:xlink="http://www.w3.org/1999/xlink" x="0px" y="0px"
	 viewBox="0 0 64 64" style="enable-background:new 0 0 64 64;" xml:space="preserve">
<style type="text/css">
	.st0{fill-rule:evenodd;clip-rule:evenodd;}
</style>
<path class="st0" d="M10.5,57.4c0.7-9.6,8.5-17.1,18.1-17.1c6.8,0,6.8,0,6.8,0c9.6,0,17.4,7.5,18.1,17.1H10.5z M50.7,43.4
	c-4.3-4.3-9.6-6.4-15.3-6.4c-6.8,0-6.8,0-6.8,0c-5.7,0-11.4,2.1-15.3,6.4c-4.3,4.3-6.4,9.6-6.4,15.4c0,1.1,0.7,1.8,1.8,1.8
	c46.6,0,46.6,0,46.6,0c1.1,0,1.8-0.7,1.8-1.8C57.1,53.1,54.6,47.7,50.7,43.4z M31.8,30.2c-6.4,0-11.4-5.4-11.4-11.8
	c0-6.4,5-11.8,11.4-11.8c6.4,0,11.7,5.4,11.7,11.8C43.6,24.9,38.2,30.2,31.8,30.2z M31.8,3.4c-8.2,0-14.9,6.8-14.9,15
	c0,8.2,6.8,15,14.9,15c8.5,0,15.3-6.8,15.3-15C47.1,10.2,40.4,3.4,31.8,3.4z"/>
</svg>
