<?xml version="1.0" encoding="utf-8"?>
<!-- Generator: Adobe Illustrator 27.0.0, SVG Export Plug-In . SVG Version: 6.00 Build 0)  -->
<svg version="1.1" id="Layer_1" xmlns="http://www.w3.org/2000/svg" xmlns:xlink="http://www.w3.org/1999/xlink" x="0px" y="0px"
	 viewBox="0 0 64 64" style="enable-background:new 0 0 64 64;" xml:space="preserve">
<style type="text/css">
	.st0{fill-rule:evenodd;clip-rule:evenodd;}
</style>
<path class="st0" d="M57.2,51.7c0,3.2-2.5,5.7-5.7,5.7c-39,0-39,0-39,0c-3.2,0-5.7-2.5-5.7-5.7c0-39.4,0-39.4,0-39.4
	c0-3.2,2.5-5.7,5.7-5.7c39,0,39,0,39,0c3.2,0,5.7,2.5,5.7,5.7V51.7z M51.5,3.3c-39,0-39,0-39,0c-5,0-8.9,3.9-8.9,9
	c0,39.4,0,39.4,0,39.4c0,5,3.9,9,8.9,9c39,0,39,0,39,0c5,0,8.9-3.9,8.9-9c0-39.4,0-39.4,0-39.4C60.4,7.3,56.5,3.3,51.5,3.3z
	 M28.4,38.1c0-12.2,0-12.2,0-12.2c9.2,6.1,9.2,6.1,9.2,6.1L28.4,38.1z M41.6,30.6c-14.2-9-14.2-9-14.2-9c-1.1-0.7-2.5,0-2.5,1.4
	c0,17.9,0,17.9,0,17.9c0,1.4,1.4,2.2,2.5,1.4c14.2-9,14.2-9,14.2-9C42.6,32.7,42.6,31.3,41.6,30.6z M32,49.9
	c-9.9,0-17.7-7.9-17.7-17.9S22.1,14.1,32,14.1S49.7,22,49.7,32S41.9,49.9,32,49.9z M32,10.5c-11.7,0-21.3,9.7-21.3,21.5
	c0,11.8,9.6,21.5,21.3,21.5S53.3,43.8,53.3,32C53.3,20.2,43.7,10.5,32,10.5z"/>
</svg>
